<svg width="24" height="24" viewBox="0 0 24 24" fill="none" xmlns="http://www.w3.org/2000/svg">
<g clip-path="url(#clip0)">
<path d="M11.92 19.2C8.40001 19.2 5.44001 16.36 5.32001 12.8L5.20001 6C5.20001 4.4 5.88001 2.88 7.00001 1.72C8.16001 0.6 9.64001 0 11.24 0C11.28 0 11.28 0 11.32 0H12.8C14.4 0 15.92 0.68 17.04 1.84C18.16 3 18.8 4.52 18.76 6.16L18.64 12.8C18.52 16.32 15.56 19.2 12.04 19.2C12 19.2 11.96 19.2 11.92 19.2ZM11.24 0.8C9.84001 0.8 8.56001 1.32 7.56001 2.32C6.56001 3.28 6.00001 4.6 6.00001 6V6.12L6.16001 12.8C6.24001 15.92 8.84001 18.4 11.96 18.4C12 18.4 12.04 18.4 12.08 18.4C15.2 18.4 17.8 15.88 17.88 12.8L18 6.12C18 4.72 17.48 3.4 16.52 2.4C15.52 1.36 14.2 0.8 12.8 0.8H12.68H11.28C11.28 0.8 11.28 0.8 11.24 0.8Z" fill="#FD739F"/>
<path d="M12 6.59999C11.88 6.59999 11.8 6.59999 11.72 6.55999C11.52 6.47999 11.36 6.31999 11.28 6.11999L10.52 4.35999C10.4 4.11999 10.44 3.83999 10.56 3.59999L11.32 2.35999C11.4 2.23999 11.48 2.15999 11.6 2.07999C11.96 1.83999 12.48 1.95999 12.68 2.35999L13.44 3.59999C13.56 3.79999 13.6 4.07999 13.48 4.31999L12.72 6.07999C12.64 6.27999 12.48 6.39999 12.32 6.51999C12.2 6.55999 12.12 6.59999 12 6.59999ZM12 2.75999L11.24 3.99999L12 5.75999L12.76 3.99999L12 2.75999Z" fill="#FD739F"/>
<path d="M5.68001 10.16C5.64001 10.16 5.60001 10.16 5.56001 10.16C5.36001 10.12 5.20001 9.88002 5.28001 9.68002C5.56001 8.60002 6.36001 7.76002 7.44001 7.40002C8.28001 7.12002 9.16001 7.20002 9.92001 7.60002C10.68 8.00002 11.28 8.68002 11.52 9.52002C11.6 9.72002 11.48 9.96002 11.28 10.04C11.08 10.12 10.84 10 10.76 9.80002C10.36 8.48002 8.96001 7.76002 7.64001 8.20002C6.84001 8.44002 6.20001 9.12002 6.00001 9.92002C6.00001 10.04 5.84001 10.16 5.68001 10.16Z" fill="#FD739F"/>
<path d="M18.32 10.16C18.16 10.16 18 10.04 17.92 9.88C17.56 8.56 16.2 7.76 14.88 8.12C14.04 8.32 13.4 8.96 13.16 9.76C13.08 9.96 12.88 10.08 12.64 10C12.44 9.92 12.32 9.72 12.4 9.48C12.76 8.4 13.6 7.6 14.68 7.32C16.44 6.84 18.24 7.92 18.68 9.64C18.72 9.84 18.6 10.08 18.4 10.12C18.4 10.12 18.36 10.16 18.32 10.16Z" fill="#FD739F"/>
<path d="M8.79999 12.8C7.67999 12.8 6.79999 12.08 6.79999 11.2C6.79999 10.32 7.67999 9.60001 8.79999 9.60001C9.91999 9.60001 10.8 10.32 10.8 11.2C10.8 12.08 9.91999 12.8 8.79999 12.8ZM8.79999 10.4C8.15999 10.4 7.59999 10.76 7.59999 11.2C7.59999 11.64 8.15999 12 8.79999 12C9.43999 12 9.99999 11.64 9.99999 11.2C9.99999 10.76 9.43999 10.4 8.79999 10.4Z" fill="#FD739F"/>
<path d="M15.2 12.8C14.08 12.8 13.2 12.08 13.2 11.2C13.2 10.32 14.08 9.60001 15.2 9.60001C16.32 9.60001 17.2 10.32 17.2 11.2C17.2 12.08 16.32 12.8 15.2 12.8ZM15.2 10.4C14.56 10.4 14 10.76 14 11.2C14 11.64 14.56 12 15.2 12C15.84 12 16.4 11.64 16.4 11.2C16.4 10.76 15.84 10.4 15.2 10.4Z" fill="#FD739F"/>
<path d="M11.64 14.4C11.2 14.4 10.8 14.04 10.8 13.56C10.8 13.48 10.8 13.4 10.84 13.32L11.16 12.24C11.24 12 11.4 11.84 11.6 11.72C11.8 11.6 12.04 11.6 12.28 11.68C12.56 11.76 12.76 11.96 12.84 12.24L13.16 13.32C13.24 13.56 13.2 13.8 13.08 14C12.96 14.2 12.8 14.36 12.56 14.4C12.48 14.4 12.4 14.4 12.32 14.4H11.64C11.68 14.4 11.68 14.4 11.64 14.4ZM12 12.4C11.96 12.4 11.92 12.44 11.92 12.44L11.6 13.52C11.6 13.56 11.64 13.6 11.68 13.6H12.32C12.36 13.6 12.36 13.56 12.36 13.52L12.04 12.44C12.08 12.44 12.04 12.4 12 12.4Z" fill="#FD739F"/>
<path d="M14.4 13.6C14.36 13.6 14.32 13.6 14.28 13.56C14.08 13.48 13.96 13.28 14.04 13.04C14.32 12.2 15.2 11.76 16.04 12.04C16.32 12.12 16.52 12.28 16.72 12.48C16.88 12.64 16.84 12.88 16.68 13.04C16.52 13.2 16.28 13.16 16.12 13C16.04 12.88 15.92 12.84 15.8 12.76C15.4 12.64 14.96 12.84 14.8 13.24C14.72 13.48 14.56 13.6 14.4 13.6Z" fill="#FD739F"/>
<path d="M9.6 13.6C9.44 13.6 9.28 13.48 9.24 13.32C9.12 12.92 8.64 12.68 8.24 12.84C8.12 12.88 8 12.96 7.92 13.08C7.76 13.24 7.52 13.28 7.36 13.12C7.2 12.96 7.16 12.72 7.32 12.56C7.52 12.36 7.72 12.2 8 12.12C8.84 11.84 9.72 12.28 10 13.12C10.08 13.32 9.96 13.56 9.76 13.64C9.68 13.6 9.64 13.6 9.6 13.6Z" fill="#FD739F"/>
<path d="M12 17.6C11.16 17.56 10.36 17.24 9.76001 16.72C9.64001 16.64 9.60001 16.52 9.60001 16.4C9.60001 16.28 9.64001 16.16 9.76001 16.08C10.4 15.56 11.16 15.24 12 15.2H12.04C12.84 15.24 13.64 15.56 14.28 16.08C14.36 16.16 14.44 16.28 14.44 16.4C14.44 16.52 14.4 16.64 14.28 16.72C13.64 17.24 12.84 17.56 12 17.6ZM10.68 16.4C11.08 16.64 11.52 16.76 12 16.8C12.48 16.76 12.92 16.64 13.32 16.4C12.92 16.16 12.48 16.04 12 16C11.52 16.04 11.08 16.16 10.68 16.4Z" fill="#FD739F"/>
<path d="M18.4 14H18.16C17.92 14 17.76 13.84 17.76 13.6C17.76 13.36 17.92 13.2 18.16 13.2H18.4C18.72 13.2 19.04 13.08 19.24 12.84C19.48 12.6 19.6 12.32 19.6 12V10C19.6 9.32 19.08 8.8 18.4 8.8H18.36C18.12 8.8 17.96 8.64 17.96 8.4C17.96 8.16 18.12 8 18.36 8H18.4C19.52 8 20.4 8.88 20.4 10V12C20.4 12.52 20.2 13.04 19.8 13.4C19.4 13.76 18.92 14 18.4 14Z" fill="#FD739F"/>
<path d="M20 10.8H18.32C18.08 10.8 17.92 10.64 17.92 10.4C17.92 10.16 18.08 10 18.32 10H20C20.24 10 20.4 10.16 20.4 10.4C20.4 10.64 20.24 10.8 20 10.8Z" fill="#FD739F"/>
<path d="M5.60001 14C5.08001 14 4.56001 13.8 4.20001 13.4C3.84001 13 3.60001 12.52 3.60001 12V10C3.60001 9.48 3.80001 8.96 4.20001 8.6C4.56001 8.24 5.08001 8 5.60001 8H5.64001C5.88001 8 6.04001 8.16 6.04001 8.4C6.04001 8.64 5.88001 8.8 5.64001 8.8H5.60001C4.92001 8.8 4.40001 9.32 4.40001 10V12C4.40001 12.32 4.52001 12.64 4.76001 12.84C5.00001 13.08 5.28001 13.2 5.60001 13.2H5.80001C6.04001 13.2 6.20001 13.36 6.20001 13.6C6.20001 13.84 6.04001 14 5.80001 14H5.60001Z" fill="#FD739F"/>
<path d="M5.68001 10.8H4.00001C3.76001 10.8 3.60001 10.64 3.60001 10.4C3.60001 10.16 3.76001 10 4.00001 10H5.68001C5.92001 10 6.08001 10.16 6.08001 10.4C6.08001 10.64 5.92001 10.8 5.68001 10.8Z" fill="#FD739F"/>
<path d="M20 10.8C19.84 10.8 19.72 10.72 19.64 10.56C19.56 10.36 19.64 10.12 19.8 10.04L20.96 9.47999C21.08 9.39999 21.2 9.27999 21.2 9.11999V6.79999C21.2 6.55999 21.36 6.39999 21.6 6.39999C21.84 6.39999 22 6.55999 22 6.79999V9.11999C22 9.55999 21.76 9.99999 21.32 10.2L20.16 10.76C20.12 10.8 20.08 10.8 20 10.8Z" fill="#FD739F"/>
<path d="M20 12.8C19.88 12.8 19.72 12.72 19.68 12.6C19.56 12.4 19.6 12.16 19.8 12.04L22.64 10.28C22.76 10.2 22.84 10.08 22.84 9.95999V6.79999C22.84 6.55999 23 6.39999 23.24 6.39999C23.48 6.39999 23.64 6.55999 23.64 6.79999V9.95999C23.64 10.36 23.44 10.76 23.08 10.96L20.24 12.72C20.16 12.8 20.08 12.8 20 12.8Z" fill="#FD739F"/>
<path d="M22.4 7.2C21.52 7.2 20.8 6.48 20.8 5.6C20.8 4.72 21.52 4 22.4 4C23.28 4 24 4.72 24 5.6C24 6.48 23.28 7.2 22.4 7.2ZM22.4 4.8C21.96 4.8 21.6 5.16 21.6 5.6C21.6 6.04 21.96 6.4 22.4 6.4C22.84 6.4 23.2 6.04 23.2 5.6C23.2 5.16 22.84 4.8 22.4 4.8Z" fill="#FD739F"/>
<path d="M4 10.8C3.96 10.8 3.88 10.8 3.84 10.76L2.68 10.2C2.28 9.99999 2 9.59999 2 9.11999V6.79999C2 6.55999 2.16 6.39999 2.4 6.39999C2.64 6.39999 2.8 6.55999 2.8 6.79999V9.11999C2.8 9.27999 2.88 9.39999 3.04 9.47999L4.2 10.04C4.4 10.12 4.48 10.36 4.36 10.56C4.28 10.72 4.16 10.8 4 10.8Z" fill="#FD739F"/>
<path d="M3.99999 12.8C3.91999 12.8 3.83999 12.8 3.79999 12.72L0.959994 10.96C0.599994 10.76 0.399994 10.36 0.399994 9.95999V6.79999C0.399994 6.55999 0.559994 6.39999 0.799994 6.39999C1.03999 6.39999 1.19999 6.55999 1.19999 6.79999V9.95999C1.19999 10.08 1.27999 10.24 1.39999 10.28L4.23999 12.04C4.43999 12.16 4.47999 12.4 4.35999 12.6C4.27999 12.72 4.11999 12.8 3.99999 12.8Z" fill="#FD739F"/>
<path d="M1.6 7.2C0.72 7.2 0 6.48 0 5.6C0 4.72 0.72 4 1.6 4C2.48 4 3.2 4.72 3.2 5.6C3.2 6.48 2.48 7.2 1.6 7.2ZM1.6 4.8C1.16 4.8 0.8 5.16 0.8 5.6C0.8 6.04 1.16 6.4 1.6 6.4C2.04 6.4 2.4 6.04 2.4 5.6C2.4 5.16 2.04 4.8 1.6 4.8Z" fill="#FD739F"/>
<path d="M2.15999 24C2.03999 24 1.91999 23.92 1.83999 23.84C1.71999 23.64 1.75999 23.4 1.95999 23.28C3.27999 22.36 5.79999 21.68 8.75999 21.36C8.99999 21.36 9.15999 21.48 9.19999 21.72C9.23999 21.92 9.07999 22.12 8.83999 22.16C5.95999 22.44 3.63999 23.08 2.39999 23.92C2.31999 23.96 2.23999 24 2.15999 24Z" fill="#FD739F"/>
<path d="M22.24 24C22.16 24 22.08 23.96 22 23.92C20.72 23.04 18.16 22.36 15.16 22.12C14.92 22.12 14.76 21.92 14.8 21.68C14.8 21.44 15 21.28 15.24 21.32C18.44 21.6 21.08 22.32 22.48 23.28C22.68 23.4 22.72 23.64 22.6 23.84C22.48 23.92 22.36 24 22.24 24Z" fill="#FD739F"/>
<path d="M22.24 24H2.16001C1.92001 24 1.76001 23.84 1.76001 23.6C1.76001 23.36 1.92001 23.2 2.16001 23.2H22.2C22.44 23.2 22.6 23.36 22.6 23.6C22.6 23.84 22.44 24 22.24 24Z" fill="#FD739F"/>
<path d="M10.08 24C9.71999 24 9.39999 23.88 9.15999 23.64C8.91999 23.4 8.79999 23.08 8.79999 22.72C8.79999 22.4 8.91999 22.12 9.11999 21.88C8.91999 21.64 8.75999 21.32 8.79999 21C8.79999 20.68 8.91999 20.4 9.11999 20.16C8.91999 19.92 8.79999 19.6 8.79999 19.24C8.79999 18.92 8.91999 18.6 9.15999 18.36C9.31999 18.2 9.51999 18.08 9.75999 18C9.95999 17.96 10.2 18.08 10.24 18.28C10.28 18.48 10.16 18.72 9.95999 18.76C9.87999 18.76 9.83999 18.8 9.75999 18.88C9.67999 18.96 9.63999 19.08 9.63999 19.24C9.63999 19.48 9.79999 19.68 10.04 19.72C10.24 19.72 10.44 19.92 10.44 20.12C10.44 20.32 10.24 20.52 10.04 20.52C9.91999 20.52 9.83999 20.56 9.75999 20.64C9.67999 20.72 9.63999 20.84 9.63999 21C9.63999 21.24 9.79999 21.48 10.04 21.48C10.24 21.48 10.44 21.68 10.44 21.88C10.44 22.08 10.24 22.28 10.04 22.28C9.95999 22.28 9.83999 22.32 9.79999 22.4C9.71999 22.48 9.67999 22.6 9.67999 22.72C9.67999 22.84 9.71999 22.96 9.79999 23.04C9.87999 23.12 9.99999 23.16 10.12 23.2H14C14.08 23.2 14.2 23.16 14.28 23.08C14.36 23 14.4 22.88 14.4 22.72C14.4 22.48 14.24 22.28 14 22.24C13.8 22.24 13.6 22.04 13.6 21.84C13.6 21.64 13.8 21.44 14 21.44C14.12 21.44 14.2 21.4 14.28 21.32C14.36 21.24 14.4 21.12 14.4 20.96C14.4 20.72 14.24 20.48 14 20.48C13.8 20.48 13.6 20.28 13.6 20.08C13.6 19.88 13.8 19.68 14 19.68C14.12 19.68 14.2 19.64 14.28 19.56C14.36 19.48 14.4 19.44 14.4 19.36C14.44 19.24 14.4 19.12 14.36 19C14.28 18.88 14.2 18.8 14.08 18.8C13.88 18.76 13.72 18.52 13.8 18.32C13.84 18.12 14.08 17.96 14.28 18.04C14.6 18.12 14.88 18.32 15.04 18.64C15.2 18.92 15.28 19.28 15.16 19.6C15.12 19.8 15 20 14.88 20.12C15.08 20.36 15.2 20.68 15.2 21C15.2 21.32 15.08 21.6 14.88 21.84C15.08 22.08 15.2 22.4 15.2 22.72C15.2 23.04 15.08 23.36 14.84 23.6C14.64 23.84 14.32 24 14 24H10.08Z" fill="#FD739F"/>
<path d="M14 20.52H10C9.76001 20.52 9.60001 20.36 9.60001 20.12C9.60001 19.88 9.76001 19.72 10 19.72H14C14.24 19.72 14.4 19.88 14.4 20.12C14.4 20.36 14.24 20.52 14 20.52Z" fill="#FD739F"/>
<path d="M14 22.28H10C9.76001 22.28 9.60001 22.12 9.60001 21.88C9.60001 21.64 9.76001 21.48 10 21.48H14C14.24 21.48 14.4 21.64 14.4 21.88C14.4 22.12 14.24 22.28 14 22.28Z" fill="#FD739F"/>
</g>
<defs>
<clipPath id="clip0">
<rect width="24" height="24" fill="white"/>
</clipPath>
</defs>
</svg>
