<svg width="21" height="24" viewBox="0 0 21 24" fill="none" xmlns="http://www.w3.org/2000/svg">
<g clip-path="url(#clip0)">
<path d="M10.0291 19.3171C6.55442 19.3171 3.63257 16.5463 3.51411 13.0732L3.39566 7.96097C3.39566 6.39999 4.0669 4.91706 5.17246 3.78536C6.31751 2.7317 7.77844 2.14633 9.35782 2.14633C9.39731 2.14633 9.39731 2.14633 9.43679 2.14633H10.9372C12.5166 2.14633 14.017 2.80975 15.1226 3.94145C16.2281 5.07316 16.8599 6.55609 16.8204 8.15609L16.6625 13.1122C16.544 16.5463 13.6221 19.3561 10.1475 19.3561C10.108 19.3171 10.0685 19.3171 10.0291 19.3171ZM9.35782 2.92682C7.97586 2.92682 6.71236 3.43414 5.72525 4.40975C4.73813 5.38536 4.18535 6.63414 4.18535 7.99999V8.11706L4.34329 13.0732C4.42226 16.1171 6.98875 18.5366 10.0685 18.5366C10.108 18.5366 10.1475 18.5366 10.187 18.5366C13.2668 18.5366 15.8333 16.078 15.9122 13.0732L16.0702 8.11706C16.0702 6.75121 15.5569 5.4634 14.6093 4.4878C13.6616 3.51219 12.3586 2.96584 10.9767 2.92682H10.8582H9.47627C9.39731 2.92682 9.35782 2.92682 9.35782 2.92682Z" fill="#FD739F"/>
<path d="M4.89607 9.87316C4.85659 9.87316 4.85659 9.87316 4.8171 9.87316C4.65917 9.83413 4.5802 9.67803 4.61968 9.56096C4.8171 8.85852 5.3304 8.31218 6.04112 8.07803C6.59391 7.92194 7.14669 7.96096 7.65999 8.19511C8.17329 8.46828 8.52865 8.89755 8.72607 9.40486C8.76555 9.52194 8.68658 9.67803 8.56813 9.71706C8.44968 9.75608 8.29174 9.67803 8.25225 9.56096C7.97586 8.74145 7.06772 8.27316 6.23855 8.54633C5.72525 8.70242 5.3304 9.13169 5.17246 9.63901C5.13298 9.79511 5.01453 9.87316 4.89607 9.87316Z" fill="#FD739F"/>
<path d="M11.6084 9.87316C11.569 9.87316 11.569 9.87316 11.5295 9.87316C11.3715 9.83413 11.2926 9.67803 11.3321 9.56096C11.5295 8.85852 12.0428 8.31218 12.7535 8.07803C13.3063 7.92194 13.8591 7.96096 14.3724 8.19511C14.8857 8.46828 15.241 8.89755 15.4384 9.40486C15.4779 9.52194 15.399 9.67803 15.2805 9.71706C15.1621 9.75608 15.0041 9.67803 14.9646 9.56096C14.6882 8.74145 13.7801 8.27316 12.9509 8.54633C12.4376 8.70242 12.0428 9.13169 11.8848 9.63901C11.8454 9.79511 11.7269 9.87316 11.6084 9.87316Z" fill="#FD739F"/>
<path d="M6.94926 13.0732C5.8437 13.0732 4.97504 12.3707 4.97504 11.5122C4.97504 10.6537 5.8437 9.95123 6.94926 9.95123C8.05483 9.95123 8.92349 10.6537 8.92349 11.5122C8.92349 12.3707 8.01534 13.0732 6.94926 13.0732ZM6.94926 10.7317C6.31751 10.7317 5.76473 11.0829 5.76473 11.5122C5.76473 11.9415 6.31751 12.2927 6.94926 12.2927C7.58101 12.2927 8.1338 11.9415 8.1338 11.5122C8.1338 11.0829 7.58101 10.7317 6.94926 10.7317Z" fill="#FD739F"/>
<path d="M13.2668 13.0732C12.1612 13.0732 11.2926 12.3707 11.2926 11.5122C11.2926 10.6537 12.1612 9.95123 13.2668 9.95123C14.3724 9.95123 15.241 10.6537 15.241 11.5122C15.241 12.3707 14.3329 13.0732 13.2668 13.0732ZM13.2668 10.7317C12.635 10.7317 12.0823 11.0829 12.0823 11.5122C12.0823 11.9415 12.635 12.2927 13.2668 12.2927C13.8986 12.2927 14.4513 11.9415 14.4513 11.5122C14.4513 11.0829 13.8986 10.7317 13.2668 10.7317Z" fill="#FD739F"/>
<path d="M9.75267 14.6342C9.31834 14.6342 8.92349 14.2829 8.92349 13.8146C8.92349 13.7366 8.92349 13.6585 8.96298 13.5805L9.27885 12.5268C9.35782 12.2927 9.51576 12.1366 9.71318 12.0195C9.9106 11.9024 10.1475 11.9024 10.3844 11.9805C10.6608 12.0585 10.8582 12.2537 10.9372 12.5268L11.2531 13.5805C11.332 13.8146 11.2926 14.0488 11.1741 14.2439C11.0557 14.439 10.8977 14.5951 10.6608 14.6342C10.5818 14.6732 10.5029 14.6732 10.4239 14.6732L9.75267 14.6342ZM10.108 12.6829C10.0685 12.6829 10.0291 12.722 10.0291 12.722L9.71318 13.7756C9.71318 13.8146 9.75267 13.8537 9.79215 13.8537H10.4239C10.4634 13.8537 10.4634 13.8146 10.4634 13.7756L10.1475 12.722C10.1475 12.6829 10.1475 12.6829 10.108 12.6829Z" fill="#FD739F"/>
<path d="M16.4255 14.2439H16.1886C15.9517 14.2439 15.7938 14.0878 15.7938 13.8537C15.7938 13.6195 15.9517 13.4634 16.1886 13.4634H16.3861C16.7019 13.4634 17.0178 13.3464 17.2152 13.1122C17.4521 12.8781 17.5706 12.6049 17.5706 12.2927V10.3415C17.5706 9.67806 17.0573 9.17075 16.3861 9.17075H16.3466C16.1097 9.17075 15.9517 9.01465 15.9517 8.7805C15.9517 8.54636 16.1097 8.39026 16.3466 8.39026H16.3861C17.4916 8.39026 18.3603 9.2488 18.3603 10.3415V12.2927C18.3603 12.8 18.1629 13.3073 17.768 13.6586C17.3732 14.0098 16.9388 14.2439 16.4255 14.2439Z" fill="#FD739F"/>
<path d="M3.7905 14.2439C3.23772 14.2439 2.76391 14.0098 2.36906 13.6586C1.97422 13.3073 1.77679 12.8 1.77679 12.2927V10.3415C1.77679 9.83416 1.97422 9.32684 2.36906 8.97562C2.76391 8.58538 3.23772 8.39026 3.7905 8.39026H3.82999C4.0669 8.39026 4.22483 8.54636 4.22483 8.7805C4.22483 9.01465 4.0669 9.17075 3.82999 9.17075H3.7905C3.11927 9.17075 2.60597 9.67806 2.60597 10.3415V12.2927C2.60597 12.6049 2.72442 12.9171 2.96133 13.1122C3.19824 13.3464 3.47463 13.4634 3.7905 13.4634H3.98793C4.22483 13.4634 4.38277 13.6195 4.38277 13.8537C4.38277 14.0878 4.22483 14.2439 3.98793 14.2439H3.7905Z" fill="#FD739F"/>
<path d="M0.394852 24C0.276398 24 0.157944 23.9219 0.0789755 23.8439C-0.0394781 23.6488 6.44433e-06 23.4146 0.157944 23.2585C1.46093 22.361 3.94846 21.6976 6.87031 21.3854C7.10722 21.3854 7.26516 21.5024 7.30464 21.7366C7.34413 21.9317 7.18619 22.1268 6.94928 22.1658C4.1064 22.439 1.81629 23.0634 0.592274 23.8829C0.55279 23.961 0.473821 24 0.394852 24Z" fill="#FD739F"/>
<path d="M20.1766 24C20.0976 24 20.0186 23.961 19.9397 23.922C18.6762 23.0634 16.1492 22.4 13.1878 22.1659C12.9509 22.1659 12.793 21.9707 12.8325 21.7366C12.8325 21.5024 13.0299 21.3463 13.2668 21.3854C16.4256 21.6585 19.0315 22.361 20.4135 23.2976C20.6109 23.4146 20.6504 23.6488 20.5319 23.8439C20.453 23.922 20.295 24 20.1766 24Z" fill="#FD739F"/>
<path d="M20.1766 24H0.394845C0.157938 24 0 23.8439 0 23.6098C0 23.3756 0.157938 23.2195 0.394845 23.2195H20.1766C20.4135 23.2195 20.5714 23.3756 20.5714 23.6098C20.5714 23.8439 20.4135 24 20.1766 24Z" fill="#FD739F"/>
<path d="M7.85742 18.1073H6.67288V22.0488H7.85742V18.1073Z" fill="#FD739F"/>
<path d="M13.3853 18.1073H12.2007V22.0488H13.3853V18.1073Z" fill="#FD739F"/>
<path d="M6.94926 11.1219C6.71235 11.1219 6.55441 11.278 6.55441 11.5122C6.55441 11.7463 6.71235 11.9024 6.94926 11.9024C7.18616 11.9024 7.3441 11.7463 7.3441 11.5122C7.1072 11.5122 6.94926 11.3171 6.94926 11.1219Z" fill="#FD739F"/>
<path d="M13.2668 11.1219C13.0299 11.1219 12.8719 11.278 12.8719 11.5122C12.8719 11.7463 13.0299 11.9024 13.2668 11.9024C13.5037 11.9024 13.6616 11.7463 13.6616 11.5122C13.4247 11.5122 13.2668 11.3171 13.2668 11.1219Z" fill="#FD739F"/>
<path d="M17.4916 7.64879C17.4916 7.49269 17.5311 7.29757 17.5311 7.14147C17.2152 5.07318 17.0573 2.69269 15.3595 1.17074C14.9251 0.780498 14.2934 0.468302 13.5037 0.897571C13.5432 0.858546 12.714 0.390254 12.5956 0.351229C12.2007 0.156107 11.7664 0.117083 11.332 0.0780586C9.23937 -0.195112 6.79133 0.195132 5.13298 1.52196C3.63257 2.69269 3.23772 4.33172 3.31669 6.24391C3.35618 7.64879 3.39566 9.52196 4.18535 10.7317C4.26432 10.6537 4.26432 10.5366 4.26432 10.4195C4.22484 9.75611 4.46174 9.17074 4.50123 8.4683C4.61968 7.06342 4.89607 5.5805 6.31752 4.95611C7.30463 4.52684 8.37071 4.72196 9.43679 4.72196C10.7398 4.76098 12.1612 4.60489 13.3852 4.17562C13.6222 4.09757 13.8196 4.01952 13.9775 3.90245C14.2144 4.21464 14.6093 4.40977 14.8857 4.72196C15.2015 5.07318 15.5174 5.5805 15.6753 6.00976C15.8728 6.67318 16.0307 7.29757 16.1492 7.96098C16.1886 8.23415 16.2281 10.5366 16.5045 10.3805C16.5835 10.3415 16.623 10.2244 16.623 10.1073C16.6625 8.74147 17.4916 8.50733 17.4916 7.64879Z" fill="#FD739F"/>
<path d="M12.0823 15.6878C11.8059 15.3756 11.4505 15.1805 11.1346 14.9854C10.8188 14.8293 10.4634 14.5561 10.1475 14.8293C10.108 14.8293 10.108 14.8683 10.108 14.9073C10.108 14.8683 10.0685 14.8683 10.0685 14.8293C9.75267 14.5171 9.35782 14.7903 9.08143 14.9854C8.72607 15.1805 8.37071 15.3756 8.1338 15.6878C7.8969 15.961 7.77844 16.2342 7.77844 16.5854C7.77844 16.7415 7.85741 16.9756 7.93638 17.1317C7.97586 17.2098 8.21277 17.522 8.25226 17.2878C8.29174 16.9756 8.33123 16.6634 8.52865 16.4293C8.72607 16.1951 9.00246 16.0781 9.27885 16C9.55525 15.922 9.91061 15.961 10.108 15.7268C10.1475 15.6878 10.1475 15.6488 10.1475 15.6098C10.1475 15.6488 10.187 15.6878 10.187 15.7268C10.3449 15.961 10.7398 15.961 11.0162 16C11.2926 16.0781 11.6084 16.1951 11.7664 16.4293C11.9638 16.6634 12.0033 16.9756 12.0428 17.2878C12.0823 17.522 12.2797 17.2098 12.3586 17.1317C12.4376 16.9756 12.5166 16.7805 12.5166 16.5854C12.4376 16.2342 12.3586 15.961 12.0823 15.6878Z" fill="#FD739F"/>
</g>
<defs>
<clipPath id="clip0">
<rect width="20.5714" height="24" fill="white"/>
</clipPath>
</defs>
</svg>
